<svg version="1.1" id="Layer_1" xmlns="http://www.w3.org/2000/svg" xmlns:xlink="http://www.w3.org/1999/xlink" x="0px" y="0px"
	 width="100%" viewBox="0 0 600 600" enable-background="new 0 0 600 600" xml:space="preserve">

<path fill="#37FF92" opacity="1.000000" stroke="none" 
	d="
M438.779144,263.010345 
	C437.513306,266.586456 436.247498,270.162567 434.798340,274.256531 
	C469.225494,287.192902 497.747467,308.085541 519.850220,337.818115 
	C519.329163,338.924042 519.106873,339.918335 518.693542,340.005371 
	C513.218384,341.157837 516.132080,347.094299 513.196655,349.699005 
	C513.080994,349.801666 513.910278,351.629944 514.526428,351.792297 
	C519.461426,353.092834 524.554016,355.770325 529.137939,350.924225 
	C542.821350,371.581787 550.880127,394.346436 553.463562,418.883514 
	C556.484924,447.580444 552.041870,475.057526 537.577393,500.399506 
	C521.065491,529.328613 494.985138,544.957092 463.549774,552.912537 
	C441.437256,558.508728 418.871063,559.984009 396.166504,560.149902 
	C357.550018,560.432007 319.233368,557.791443 281.938324,547.014771 
	C275.250885,545.082397 269.976501,545.375427 263.683228,548.396484 
	C244.720566,557.499512 224.478302,562.072571 203.450638,563.059509 
	C202.625763,563.098206 201.795563,563.043518 200.969406,563.001343 
	C200.893936,562.997498 200.830063,562.766296 200.579376,562.311829 
	C215.387894,552.995850 228.737656,541.981445 239.046143,527.078308 
	C225.952225,517.459595 214.620682,506.315430 206.038605,492.396484 
	C207.722107,489.944336 209.158218,487.883484 210.641815,485.754456 
	C212.891632,484.569122 215.495193,483.197418 218.602142,481.560486 
	C219.011185,481.741455 220.145325,482.243256 221.737091,482.947540 
	C220.374603,473.819305 228.516968,471.225952 231.785583,466.145813 
	C230.090897,464.445831 228.289246,462.638519 226.539444,460.883270 
	C226.171188,461.614532 225.624710,462.699707 224.982483,463.975037 
	C223.488174,462.865967 222.318283,461.997650 220.896011,460.942047 
	C219.449387,462.073578 218.108597,463.122345 216.818497,464.131439 
	C218.100586,466.145081 219.029404,467.603882 219.261154,467.967865 
	C213.017136,474.279816 207.321075,480.037872 201.625000,485.795898 
	C193.071243,472.030426 188.658447,456.809052 188.194519,440.844910 
	C186.527100,383.465027 210.123795,338.068665 255.157913,303.359222 
	C270.820862,291.287231 288.317902,282.400970 307.412750,275.433380 
	C306.787292,273.578278 306.285187,271.893555 305.657288,270.257111 
	C299.695435,254.719040 293.651398,239.212112 287.790375,223.636215 
	C286.712555,220.771820 285.230255,219.119843 282.206299,218.056839 
	C270.498016,213.941101 265.104218,201.118484 270.080292,189.974854 
	C274.873108,179.241623 287.693359,174.546646 298.290680,179.643768 
	C309.269226,184.924255 313.422119,198.197098 307.195312,208.939301 
	C305.789673,211.364304 305.619812,213.195023 306.630432,215.776459 
	C313.541870,233.429764 320.270844,251.154510 327.220673,269.278778 
	C331.915405,268.435883 336.439514,267.606506 340.969940,266.813110 
	C364.025024,262.775421 387.044495,262.942871 409.972321,267.688843 
	C413.466797,268.412170 415.276733,267.974457 416.645172,264.254791 
	C422.620178,248.013260 429.020752,231.928452 435.026215,215.697708 
	C435.704590,213.864365 435.539337,211.104095 434.616669,209.393036 
	C428.663147,198.352463 432.337036,185.306900 443.224121,179.869659 
	C453.978790,174.498550 467.065002,179.179581 471.780518,190.084442 
	C476.650208,201.345886 471.186890,213.604156 459.563293,218.296768 
	C457.457611,219.146866 455.212341,221.252640 454.354675,223.326035 
	C449.713531,234.546356 445.488525,245.938797 440.718536,257.358673 
	C438.834778,254.884094 437.498810,252.217926 435.783020,249.824020 
	C435.253632,249.085464 432.773071,248.705215 432.729767,248.808472 
	C431.027252,252.867538 427.217346,250.784836 425.467834,251.212387 
	C424.975220,254.710327 424.360718,257.548645 424.304352,260.398041 
	C424.287292,261.259979 425.667419,262.410095 426.663330,262.985657 
	C430.651062,265.290375 434.735016,264.891876 438.779144,263.010345 
M347.929749,339.354156 
	C347.286530,338.649414 346.643311,337.944672 346.000061,337.239929 
	C345.697510,337.659546 345.394958,338.079193 345.092407,338.498810 
	C346.063721,338.997223 347.035034,339.495636 347.986481,340.752441 
	C346.002289,342.959320 344.018097,345.166168 341.975677,347.437775 
	C342.678375,347.806122 343.875946,348.433899 344.441986,349.560242 
	C336.847351,349.667847 329.252960,349.844849 321.658081,349.868652 
	C305.834167,349.918213 290.009918,349.847931 274.186035,349.901184 
	C262.207550,349.941467 253.017807,359.083893 252.971085,370.993530 
	C252.918182,384.485382 252.929642,397.977753 252.990463,411.469543 
	C252.999329,413.436737 253.176987,415.477448 253.720734,417.355530 
	C256.544250,427.107635 264.964050,432.982513 276.066467,432.993225 
	C328.701324,433.044006 381.336212,433.067841 433.848450,433.788513 
	C431.758331,435.232422 429.355499,436.380859 427.648834,438.187073 
	C424.843719,441.155762 422.827576,444.915863 419.854218,447.667328 
	C416.635620,450.645752 412.701508,452.850952 408.984131,455.460266 
	C407.834595,455.288269 406.343353,455.065155 404.852142,454.842041 
	C404.679413,456.089050 404.244537,457.365601 404.381378,458.577698 
	C404.859344,462.812805 408.284302,463.498383 412.160919,464.927979 
	C411.404541,462.601898 410.905945,461.068573 410.285461,459.160370 
	C412.673126,460.252441 414.512329,461.093658 417.539246,462.478088 
	C416.439362,459.575043 415.899750,458.150757 415.307159,456.586731 
	C422.836029,457.473511 423.945282,456.626404 423.738922,450.147369 
	C428.788391,451.650452 430.745697,449.073090 431.700500,443.848450 
	C432.380676,445.617645 433.060822,447.386841 433.740997,449.156006 
	C434.399963,448.686401 435.058960,448.216766 435.717926,447.747131 
	C435.213379,442.805237 436.379028,438.800446 441.000916,436.354370 
	C441.973846,435.839417 442.362000,434.219513 443.951996,433.038086 
	C451.437988,433.021393 458.924316,433.045502 466.409851,432.978943 
	C479.282440,432.864471 488.859039,423.435638 488.952240,410.652802 
	C489.048035,397.511078 489.039093,384.367737 488.957886,371.225861 
	C488.899750,361.818909 483.157227,353.377899 474.116180,351.051086 
	C468.836090,349.692200 463.073792,349.945190 457.527008,349.927917 
	C427.582581,349.834686 397.637604,349.924561 367.693054,349.847260 
	C362.108307,349.832855 356.524719,349.344513 350.980652,348.320831 
	C352.350250,345.804260 353.719849,343.287720 355.101349,340.749298 
	C353.821350,339.812500 352.255646,338.666656 350.904694,337.677979 
	C349.897278,338.483856 348.945709,339.245056 347.929749,339.354156 
M404.070984,469.971527 
	C399.708771,469.988495 395.346527,470.005493 390.050140,469.969391 
	C367.622803,469.949524 345.195435,469.928650 322.768097,469.911133 
	C319.943970,469.908936 317.103546,469.737213 314.299957,469.980743 
	C311.072662,470.261139 309.352936,471.980621 310.679718,475.387909 
	C315.187164,486.963531 321.044769,497.625580 331.372253,505.868744 
	C346.152863,519.322266 363.642090,522.820923 382.768066,519.345947 
	C391.065125,517.838379 399.279144,515.580444 405.985260,508.854919 
	C418.052948,501.037048 425.008179,489.275238 430.553345,476.543884 
	C432.471771,472.139313 430.736023,469.993347 425.914581,469.965088 
	C418.943329,469.924255 411.971497,469.984436 404.070984,469.971527
  M433.909760,433.444916 
	C436.686218,433.082520 439.401398,433.063690 442.568115,433.076843 
	C442.362000,434.219513 441.973846,435.839417 441.000916,436.354370 
	C436.379028,438.800446 435.213379,442.805237 435.717926,447.747131 
	C435.058960,448.216766 434.399963,448.686401 433.740997,449.156006 
	C433.060822,447.386841 432.380676,445.617645 431.700500,443.848450 
	C430.745697,449.073090 428.788391,451.650452 423.738922,450.147369 
	C423.945282,456.626404 422.836029,457.473511 415.307159,456.586731 
	C415.899750,458.150757 416.439362,459.575043 417.539246,462.478088 
	C414.512329,461.093658 412.673126,460.252441 410.285461,459.160370 
	C410.905945,461.068573 411.404541,462.601898 412.160919,464.927979 
	C408.284302,463.498383 404.859344,462.812805 404.381378,458.577698 
	C404.244537,457.365601 404.679413,456.089050 404.852142,454.842041 
	C406.343353,455.065155 407.834595,455.288269 408.984131,455.460266 
	C412.701508,452.850952 416.635620,450.645752 419.854218,447.667328 
	C422.827576,444.915863 424.843719,441.155762 427.648834,438.187073 
	C429.355499,436.380859 431.758331,435.232422 433.909760,433.444916
  M201.695007,486.091858 
	C207.321075,480.037872 213.017136,474.279816 219.261154,467.967865 
	C219.029404,467.603882 218.100586,466.145081 216.818497,464.131439 
	C218.108597,463.122345 219.449387,462.073578 220.896011,460.942047 
	C222.318283,461.997650 223.488174,462.865967 224.982483,463.975037 
	C225.624710,462.699707 226.171188,461.614532 226.539444,460.883270 
	C228.289246,462.638519 230.090897,464.445831 231.785583,466.145813 
	C228.516968,471.225952 220.374603,473.819305 221.737091,482.947540 
	C220.145325,482.243256 219.011185,481.741455 218.602142,481.560486 
	C215.495193,483.197418 212.891632,484.569122 210.641815,485.754456 
	C209.158218,487.883484 207.722107,489.944336 205.907852,492.063904 
	C204.274811,490.211029 203.019897,488.299438 201.695007,486.091858
  M438.959900,262.715515 C434.735016,264.891876 430.651062,265.290375
  426.663330,262.985657 
	C425.667419,262.410095 424.287292,261.259979 424.304352,260.398041 
	C424.360718,257.548645 424.975220,254.710327 425.467834,251.212387 
	C427.217346,250.784836 431.027252,252.867538 432.729767,248.808472 
	C432.773071,248.705215 435.253632,249.085464 435.783020,249.824020 
	C437.498810,252.217926 438.834778,254.884094 440.546875,257.680298 
	C440.231415,259.417023 439.686035,260.918854 438.959900,262.715515 
  M529.073853,350.581299 
	C524.554016,355.770325 519.461426,353.092834 514.526428,351.792297 
	C513.910278,351.629944 513.080994,349.801666 513.196655,349.699005 
	C516.132080,347.094299 513.218384,341.157837 518.693542,340.005371 
	C519.106873,339.918335 519.329163,338.924042 519.961304,338.148987 
	C523.191467,342.043793 526.100586,346.141083 529.073853,350.581299 
  M348.003174,339.997009 
	C347.035034,339.495636 346.063721,338.997223 345.092407,338.498810 
	C345.394958,338.079193 345.697510,337.659546 346.000061,337.239929 
	C346.643311,337.944672 347.286530,338.649414 347.961945,339.680206 
	C347.994141,340.006256 348.000000,340.000000 348.003174,339.997009 
  M350.960632,348.697845 
	C349.263123,349.072144 347.585602,349.069458 345.490845,349.064209 
	C343.875946,348.433899 342.678375,347.806122 341.975677,347.437775 
	C344.018097,345.166168 346.002289,342.959320 347.993225,340.376221 
	C348.000000,340.000000 347.994141,340.006256 347.994141,340.006226 
	C348.945709,339.245056 349.897278,338.483856 350.904694,337.677979 
	C352.255646,338.666656 353.821350,339.812500 355.101349,340.749298 
	C353.719849,343.287720 352.350250,345.804260 350.960632,348.697845
z"/>
<path fill="#3740FF" opacity="1.000000" stroke="none" 
	d="
M433.971069,433.101318 
	C381.336212,433.067841 328.701324,433.044006 276.066467,432.993225 
	C264.964050,432.982513 256.544250,427.107635 253.720734,417.355530 
	C253.176987,415.477448 252.999329,413.436737 252.990463,411.469543 
	C252.929642,397.977753 252.918182,384.485382 252.971085,370.993530 
	C253.017807,359.083893 262.207550,349.941467 274.186035,349.901184 
	C290.009918,349.847931 305.834167,349.918213 321.658081,349.868652 
	C329.252960,349.844849 336.847351,349.667847 345.175049,349.313507 
	C347.585602,349.069458 349.263123,349.072144 350.940613,349.074860 
	C356.524719,349.344513 362.108307,349.832855 367.693054,349.847260 
	C397.637604,349.924561 427.582581,349.834686 457.527008,349.927917 
	C463.073792,349.945190 468.836090,349.692200 474.116180,351.051086 
	C483.157227,353.377899 488.899750,361.818909 488.957886,371.225861 
	C489.039093,384.367737 489.048035,397.511078 488.952240,410.652802 
	C488.859039,423.435638 479.282440,432.864471 466.409851,432.978943 
	C458.924316,433.045502 451.437988,433.021393 443.034271,433.041504 
	C439.401398,433.063690 436.686218,433.082520 433.971069,433.101318 
M301.931854,388.913605 
	C301.258484,395.267059 302.387665,401.149628 306.499084,406.237122 
	C311.930115,412.957489 320.416443,413.321716 326.399384,407.104126 
	C333.820831,399.391571 334.126801,384.807831 327.032806,376.911713 
	C322.639343,372.021393 316.455139,370.887848 310.311920,374.108215 
	C305.281677,377.389893 302.799988,382.176605 301.931854,388.913605 
M439.537262,384.243378 
	C438.810669,382.753235 438.195984,381.195099 437.339172,379.784058 
	C432.129608,371.204529 421.624847,370.383148 415.183594,378.012512 
	C408.517639,385.907959 408.813843,399.800476 415.811249,407.449371 
	C421.718140,413.906281 430.747559,413.626495 436.075104,406.665314 
	C441.068054,400.141357 442.137299,392.832428 439.537262,384.243378 
z"/>
<path fill="#37FF9233" opacity="1.000000" stroke="none" 
	d="
M331.282593,505.256378 
	C321.044769,497.625580 315.187164,486.963531 310.679718,475.387909 
	C309.352936,471.980621 311.072662,470.261139 314.299957,469.980743 
	C317.103546,469.737213 319.943970,469.908936 322.768097,469.911133 
	C345.195435,469.928650 367.622803,469.949524 390.382812,470.310242 
	C389.850098,472.181946 388.984772,473.712769 388.122437,475.238251 
	C396.841614,480.225342 403.820557,480.747253 404.999908,470.001556 
	C411.971497,469.984436 418.943329,469.924255 425.914581,469.965088 
	C430.736023,469.993347 432.471771,472.139313 430.553345,476.543884 
	C425.008179,489.275238 418.052948,501.037048 405.412720,508.639099 
	C380.941528,492.954376 356.381958,492.836884 331.282593,505.256378
  M404.535461,469.986542 
	C403.820557,480.747253 396.841614,480.225342 388.122437,475.238251 
	C388.984772,473.712769 389.850098,472.181946 390.849884,470.336792 
	C395.346527,470.005493 399.708771,469.988495 404.535461,469.986542 
z"/>
<path fill="#FF37A4" opacity="1.000000" stroke="none" 
	d="
M331.327423,505.562561 
	C356.381958,492.836884 380.941528,492.954376 405.086243,508.681061 
	C399.279144,515.580444 391.065125,517.838379 382.768066,519.345947 
	C363.642090,522.820923 346.152863,519.322266 331.327423,505.562561 
z"/>
<path fill="#FFF637" opacity="1.000000" stroke="none" 
	d="
  M439.681793,384.617188 
	C442.137299,392.832428 441.068054,400.141357 436.075104,406.665314 
	C430.747559,413.626495 421.718140,413.906281 415.811249,407.449371 
	C408.813843,399.800476 408.517639,385.907959 415.183594,378.012512 
	C421.624847,370.383148 432.129608,371.204529 437.339172,379.784058 
	C438.195984,381.195099 438.810669,382.753235 439.681793,384.617188 
  M310.981720,373.969543 
	C316.455139,370.887848 322.639343,372.021393 327.032806,376.911713 
	C334.126801,384.807831 333.820831,399.391571 326.399384,407.104126 
	C320.416443,413.321716 311.930115,412.957489 306.499084,406.237122 
	C302.387665,401.149628 301.258484,395.267059 302.426025,388.456909 
	C306.684753,387.731293 311.115509,390.997498 313.984070,385.967224 
	C316.798706,381.031494 312.776520,377.771301 310.981720,373.969543
  M310.646820,374.038879 
	C312.776520,377.771301 316.798706,381.031494 313.984070,385.967224 
	C311.115509,390.997498 306.684753,387.731293 302.509674,388.007629 
	C302.799988,382.176605 305.281677,377.389893 310.646820,374.038879 
z"/>

</svg>