<svg version="1.1" id="Layer_1" xmlns="http://www.w3.org/2000/svg" xmlns:xlink="http://www.w3.org/1999/xlink" x="0px" y="0px"
	 width="100%" viewBox="0 0 700 700" enable-background="new 0 0 700 700" xml:space="preserve">

<path fill="#37FF92" opacity="1.000000" stroke="none" 
	d="
M438.779144,263.010345 
	C437.513306,266.586456 436.247498,270.162567 434.798340,274.256531 
	C469.225494,287.192902 497.747467,308.085541 519.850220,337.818115 
	C519.329163,338.924042 519.106873,339.918335 518.693542,340.005371 
	C513.218384,341.157837 516.132080,347.094299 513.196655,349.699005 
	C513.080994,349.801666 513.910278,351.629944 514.526428,351.792297 
	C519.461426,353.092834 524.554016,355.770325 529.137939,350.924225 
	C542.821350,371.581787 550.880127,394.346436 553.463562,418.883514 
	C556.484924,447.580444 552.041870,475.057526 537.577393,500.399506 
	C521.065491,529.328613 494.985138,544.957092 463.549774,552.912537 
	C441.437256,558.508728 418.871063,559.984009 396.166504,560.149902 
	C357.550018,560.432007 319.233368,557.791443 281.938324,547.014771 
	C275.250885,545.082397 269.976501,545.375427 263.683228,548.396484 
	C244.720566,557.499512 224.478302,562.072571 203.450638,563.059509 
	C202.625763,563.098206 201.795563,563.043518 200.969406,563.001343 
	C200.893936,562.997498 200.830063,562.766296 200.579376,562.311829 
	C215.387894,552.995850 228.737656,541.981445 239.046143,527.078308 
	C225.952225,517.459595 214.620682,506.315430 206.038605,492.396484 
	C207.722107,489.944336 209.158218,487.883484 210.641815,485.754456 
	C212.891632,484.569122 215.495193,483.197418 218.602142,481.560486 
	C219.011185,481.741455 220.145325,482.243256 221.737091,482.947540 
	C220.374603,473.819305 228.516968,471.225952 231.785583,466.145813 
	C230.090897,464.445831 228.289246,462.638519 226.539444,460.883270 
	C226.171188,461.614532 225.624710,462.699707 224.982483,463.975037 
	C223.488174,462.865967 222.318283,461.997650 220.896011,460.942047 
	C219.449387,462.073578 218.108597,463.122345 216.818497,464.131439 
	C218.100586,466.145081 219.029404,467.603882 219.261154,467.967865 
	C213.017136,474.279816 207.321075,480.037872 201.625000,485.795898 
	C193.071243,472.030426 188.658447,456.809052 188.194519,440.844910 
	C186.527100,383.465027 210.123795,338.068665 255.157913,303.359222 
	C270.820862,291.287231 288.317902,282.400970 307.412750,275.433380 
	C306.787292,273.578278 306.285187,271.893555 305.657288,270.257111 
	C299.695435,254.719040 293.651398,239.212112 287.790375,223.636215 
	C286.712555,220.771820 285.230255,219.119843 282.206299,218.056839 
	C270.498016,213.941101 265.104218,201.118484 270.080292,189.974854 
	C274.873108,179.241623 287.693359,174.546646 298.290680,179.643768 
	C309.269226,184.924255 313.422119,198.197098 307.195312,208.939301 
	C305.789673,211.364304 305.619812,213.195023 306.630432,215.776459 
	C313.541870,233.429764 320.270844,251.154510 327.220673,269.278778 
	C331.915405,268.435883 336.439514,267.606506 340.969940,266.813110 
	C364.025024,262.775421 387.044495,262.942871 409.972321,267.688843 
	C413.466797,268.412170 415.276733,267.974457 416.645172,264.254791 
	C422.620178,248.013260 429.020752,231.928452 435.026215,215.697708 
	C435.704590,213.864365 435.539337,211.104095 434.616669,209.393036 
	C428.663147,198.352463 432.337036,185.306900 443.224121,179.869659 
	C453.978790,174.498550 467.065002,179.179581 471.780518,190.084442 
	C476.650208,201.345886 471.186890,213.604156 459.563293,218.296768 
	C457.457611,219.146866 455.212341,221.252640 454.354675,223.326035 
	C449.713531,234.546356 445.488525,245.938797 440.718536,257.358673 
	C438.834778,254.884094 437.498810,252.217926 435.783020,249.824020 
	C435.253632,249.085464 432.773071,248.705215 432.729767,248.808472 
	C431.027252,252.867538 427.217346,250.784836 425.467834,251.212387 
	C424.975220,254.710327 424.360718,257.548645 424.304352,260.398041 
	C424.287292,261.259979 425.667419,262.410095 426.663330,262.985657 
	C430.651062,265.290375 434.735016,264.891876 438.779144,263.010345 
M347.929749,339.354156 
	C347.286530,338.649414 346.643311,337.944672 346.000061,337.239929 
	C345.697510,337.659546 345.394958,338.079193 345.092407,338.498810 
	C346.063721,338.997223 347.035034,339.495636 347.986481,340.752441 
	C346.002289,342.959320 344.018097,345.166168 341.975677,347.437775 
	C342.678375,347.806122 343.875946,348.433899 344.441986,349.560242 
	C336.847351,349.667847 329.252960,349.844849 321.658081,349.868652 
	C305.834167,349.918213 290.009918,349.847931 274.186035,349.901184 
	C262.207550,349.941467 253.017807,359.083893 252.971085,370.993530 
	C252.918182,384.485382 252.929642,397.977753 252.990463,411.469543 
	C252.999329,413.436737 253.176987,415.477448 253.720734,417.355530 
	C256.544250,427.107635 264.964050,432.982513 276.066467,432.993225 
	C328.701324,433.044006 381.336212,433.067841 433.848450,433.788513 
	C431.758331,435.232422 429.355499,436.380859 427.648834,438.187073 
	C424.843719,441.155762 422.827576,444.915863 419.854218,447.667328 
	C416.635620,450.645752 412.701508,452.850952 408.984131,455.460266 
	C407.834595,455.288269 406.343353,455.065155 404.852142,454.842041 
	C404.679413,456.089050 404.244537,457.365601 404.381378,458.577698 
	C404.859344,462.812805 408.284302,463.498383 412.160919,464.927979 
	C411.404541,462.601898 410.905945,461.068573 410.285461,459.160370 
	C412.673126,460.252441 414.512329,461.093658 417.539246,462.478088 
	C416.439362,459.575043 415.899750,458.150757 415.307159,456.586731 
	C422.836029,457.473511 423.945282,456.626404 423.738922,450.147369 
	C428.788391,451.650452 430.745697,449.073090 431.700500,443.848450 
	C432.380676,445.617645 433.060822,447.386841 433.740997,449.156006 
	C434.399963,448.686401 435.058960,448.216766 435.717926,447.747131 
	C435.213379,442.805237 436.379028,438.800446 441.000916,436.354370 
	C441.973846,435.839417 442.362000,434.219513 443.951996,433.038086 
	C451.437988,433.021393 458.924316,433.045502 466.409851,432.978943 
	C479.282440,432.864471 488.859039,423.435638 488.952240,410.652802 
	C489.048035,397.511078 489.039093,384.367737 488.957886,371.225861 
	C488.899750,361.818909 483.157227,353.377899 474.116180,351.051086 
	C468.836090,349.692200 463.073792,349.945190 457.527008,349.927917 
	C427.582581,349.834686 397.637604,349.924561 367.693054,349.847260 
	C362.108307,349.832855 356.524719,349.344513 350.980652,348.320831 
	C352.350250,345.804260 353.719849,343.287720 355.101349,340.749298 
	C353.821350,339.812500 352.255646,338.666656 350.904694,337.677979 
	C349.897278,338.483856 348.945709,339.245056 347.929749,339.354156 
M404.070984,469.971527 
	C399.708771,469.988495 395.346527,470.005493 390.050140,469.969391 
	C367.622803,469.949524 345.195435,469.928650 322.768097,469.911133 
	C319.943970,469.908936 317.103546,469.737213 314.299957,469.980743 
	C311.072662,470.261139 309.352936,471.980621 310.679718,475.387909 
	C315.187164,486.963531 321.044769,497.625580 331.372253,505.868744 
	C346.152863,519.322266 363.642090,522.820923 382.768066,519.345947 
	C391.065125,517.838379 399.279144,515.580444 405.985260,508.854919 
	C418.052948,501.037048 425.008179,489.275238 430.553345,476.543884 
	C432.471771,472.139313 430.736023,469.993347 425.914581,469.965088 
	C418.943329,469.924255 411.971497,469.984436 404.070984,469.971527
  M433.909760,433.444916 
	C436.686218,433.082520 439.401398,433.063690 442.568115,433.076843 
	C442.362000,434.219513 441.973846,435.839417 441.000916,436.354370 
	C436.379028,438.800446 435.213379,442.805237 435.717926,447.747131 
	C435.058960,448.216766 434.399963,448.686401 433.740997,449.156006 
	C433.060822,447.386841 432.380676,445.617645 431.700500,443.848450 
	C430.745697,449.073090 428.788391,451.650452 423.738922,450.147369 
	C423.945282,456.626404 422.836029,457.473511 415.307159,456.586731 
	C415.899750,458.150757 416.439362,459.575043 417.539246,462.478088 
	C414.512329,461.093658 412.673126,460.252441 410.285461,459.160370 
	C410.905945,461.068573 411.404541,462.601898 412.160919,464.927979 
	C408.284302,463.498383 404.859344,462.812805 404.381378,458.577698 
	C404.244537,457.365601 404.679413,456.089050 404.852142,454.842041 
	C406.343353,455.065155 407.834595,455.288269 408.984131,455.460266 
	C412.701508,452.850952 416.635620,450.645752 419.854218,447.667328 
	C422.827576,444.915863 424.843719,441.155762 427.648834,438.187073 
	C429.355499,436.380859 431.758331,435.232422 433.909760,433.444916
  M201.695007,486.091858 
	C207.321075,480.037872 213.017136,474.279816 219.261154,467.967865 
	C219.029404,467.603882 218.100586,466.145081 216.818497,464.131439 
	C218.108597,463.122345 219.449387,462.073578 220.896011,460.942047 
	C222.318283,461.997650 223.488174,462.865967 224.982483,463.975037 
	C225.624710,462.699707 226.171188,461.614532 226.539444,460.883270 
	C228.289246,462.638519 230.090897,464.445831 231.785583,466.145813 
	C228.516968,471.225952 220.374603,473.819305 221.737091,482.947540 
	C220.145325,482.243256 219.011185,481.741455 218.602142,481.560486 
	C215.495193,483.197418 212.891632,484.569122 210.641815,485.754456 
	C209.158218,487.883484 207.722107,489.944336 205.907852,492.063904 
	C204.274811,490.211029 203.019897,488.299438 201.695007,486.091858
  M438.959900,262.715515 C434.735016,264.891876 430.651062,265.290375
  426.663330,262.985657 
	C425.667419,262.410095 424.287292,261.259979 424.304352,260.398041 
	C424.360718,257.548645 424.975220,254.710327 425.467834,251.212387 
	C427.217346,250.784836 431.027252,252.867538 432.729767,248.808472 
	C432.773071,248.705215 435.253632,249.085464 435.783020,249.824020 
	C437.498810,252.217926 438.834778,254.884094 440.546875,257.680298 
	C440.231415,259.417023 439.686035,260.918854 438.959900,262.715515 
  M529.073853,350.581299 
	C524.554016,355.770325 519.461426,353.092834 514.526428,351.792297 
	C513.910278,351.629944 513.080994,349.801666 513.196655,349.699005 
	C516.132080,347.094299 513.218384,341.157837 518.693542,340.005371 
	C519.106873,339.918335 519.329163,338.924042 519.961304,338.148987 
	C523.191467,342.043793 526.100586,346.141083 529.073853,350.581299 
  M348.003174,339.997009 
	C347.035034,339.495636 346.063721,338.997223 345.092407,338.498810 
	C345.394958,338.079193 345.697510,337.659546 346.000061,337.239929 
	C346.643311,337.944672 347.286530,338.649414 347.961945,339.680206 
	C347.994141,340.006256 348.000000,340.000000 348.003174,339.997009 
  M350.960632,348.697845 
	C349.263123,349.072144 347.585602,349.069458 345.490845,349.064209 
	C343.875946,348.433899 342.678375,347.806122 341.975677,347.437775 
	C344.018097,345.166168 346.002289,342.959320 347.993225,340.376221 
	C348.000000,340.000000 347.994141,340.006256 347.994141,340.006226 
	C348.945709,339.245056 349.897278,338.483856 350.904694,337.677979 
	C352.255646,338.666656 353.821350,339.812500 355.101349,340.749298 
	C353.719849,343.287720 352.350250,345.804260 350.960632,348.697845
z"/>
<path fill="#3740FF" opacity="1.000000" stroke="none" 
	d="
M433.971069,433.101318 
	C381.336212,433.067841 328.701324,433.044006 276.066467,432.993225 
	C264.964050,432.982513 256.544250,427.107635 253.720734,417.355530 
	C253.176987,415.477448 252.999329,413.436737 252.990463,411.469543 
	C252.929642,397.977753 252.918182,384.485382 252.971085,370.993530 
	C253.017807,359.083893 262.207550,349.941467 274.186035,349.901184 
	C290.009918,349.847931 305.834167,349.918213 321.658081,349.868652 
	C329.252960,349.844849 336.847351,349.667847 345.175049,349.313507 
	C347.585602,349.069458 349.263123,349.072144 350.940613,349.074860 
	C356.524719,349.344513 362.108307,349.832855 367.693054,349.847260 
	C397.637604,349.924561 427.582581,349.834686 457.527008,349.927917 
	C463.073792,349.945190 468.836090,349.692200 474.116180,351.051086 
	C483.157227,353.377899 488.899750,361.818909 488.957886,371.225861 
	C489.039093,384.367737 489.048035,397.511078 488.952240,410.652802 
	C488.859039,423.435638 479.282440,432.864471 466.409851,432.978943 
	C458.924316,433.045502 451.437988,433.021393 443.034271,433.041504 
	C439.401398,433.063690 436.686218,433.082520 433.971069,433.101318 
M301.931854,388.913605 
	C301.258484,395.267059 302.387665,401.149628 306.499084,406.237122 
	C311.930115,412.957489 320.416443,413.321716 326.399384,407.104126 
	C333.820831,399.391571 334.126801,384.807831 327.032806,376.911713 
	C322.639343,372.021393 316.455139,370.887848 310.311920,374.108215 
	C305.281677,377.389893 302.799988,382.176605 301.931854,388.913605 
M439.537262,384.243378 
	C438.810669,382.753235 438.195984,381.195099 437.339172,379.784058 
	C432.129608,371.204529 421.624847,370.383148 415.183594,378.012512 
	C408.517639,385.907959 408.813843,399.800476 415.811249,407.449371 
	C421.718140,413.906281 430.747559,413.626495 436.075104,406.665314 
	C441.068054,400.141357 442.137299,392.832428 439.537262,384.243378 
z"/>
<path fill="#37FF9233" opacity="1.000000" stroke="none" 
	d="
M331.282593,505.256378 
	C321.044769,497.625580 315.187164,486.963531 310.679718,475.387909 
	C309.352936,471.980621 311.072662,470.261139 314.299957,469.980743 
	C317.103546,469.737213 319.943970,469.908936 322.768097,469.911133 
	C345.195435,469.928650 367.622803,469.949524 390.382812,470.310242 
	C389.850098,472.181946 388.984772,473.712769 388.122437,475.238251 
	C396.841614,480.225342 403.820557,480.747253 404.999908,470.001556 
	C411.971497,469.984436 418.943329,469.924255 425.914581,469.965088 
	C430.736023,469.993347 432.471771,472.139313 430.553345,476.543884 
	C425.008179,489.275238 418.052948,501.037048 405.412720,508.639099 
	C380.941528,492.954376 356.381958,492.836884 331.282593,505.256378
  M404.535461,469.986542 
	C403.820557,480.747253 396.841614,480.225342 388.122437,475.238251 
	C388.984772,473.712769 389.850098,472.181946 390.849884,470.336792 
	C395.346527,470.005493 399.708771,469.988495 404.535461,469.986542 
z"/>
<path fill="#FF37A4" opacity="1.000000" stroke="none" 
	d="
M331.327423,505.562561 
	C356.381958,492.836884 380.941528,492.954376 405.086243,508.681061 
	C399.279144,515.580444 391.065125,517.838379 382.768066,519.345947 
	C363.642090,522.820923 346.152863,519.322266 331.327423,505.562561 
z"/>
<path fill="#FFF637" opacity="1.000000" stroke="none" 
	d="
  M439.681793,384.617188 
	C442.137299,392.832428 441.068054,400.141357 436.075104,406.665314 
	C430.747559,413.626495 421.718140,413.906281 415.811249,407.449371 
	C408.813843,399.800476 408.517639,385.907959 415.183594,378.012512 
	C421.624847,370.383148 432.129608,371.204529 437.339172,379.784058 
	C438.195984,381.195099 438.810669,382.753235 439.681793,384.617188 
  M310.981720,373.969543 
	C316.455139,370.887848 322.639343,372.021393 327.032806,376.911713 
	C334.126801,384.807831 333.820831,399.391571 326.399384,407.104126 
	C320.416443,413.321716 311.930115,412.957489 306.499084,406.237122 
	C302.387665,401.149628 301.258484,395.267059 302.426025,388.456909 
	C306.684753,387.731293 311.115509,390.997498 313.984070,385.967224 
	C316.798706,381.031494 312.776520,377.771301 310.981720,373.969543
  M310.646820,374.038879 
	C312.776520,377.771301 316.798706,381.031494 313.984070,385.967224 
	C311.115509,390.997498 306.684753,387.731293 302.509674,388.007629 
	C302.799988,382.176605 305.281677,377.389893 310.646820,374.038879 
z"/>



<path fill="#37FF9266" opacity="1.000000" stroke="none" 
	d="
M526.418274,632.658813 
	C529.647156,633.557739 532.531372,634.225891 535.404907,634.937195 
	C536.353943,635.172180 537.836731,635.252075 538.123047,635.855103 
	C541.104980,642.135071 547.174316,644.256775 553.311279,646.133362 
	C549.038147,653.232239 549.038147,653.232239 553.672974,657.868347 
	C548.827881,662.616394 544.411438,667.514038 537.182007,669.330872 
	C530.583252,670.989319 524.521912,674.677612 518.020996,676.870117 
	C513.394836,678.430298 508.435913,679.010986 503.616760,679.985596 
	C502.648285,680.181396 501.533905,679.935669 500.666809,680.310303 
	C488.572388,685.535461 475.530609,685.352661 462.817902,687.057983 
	C456.285522,687.934265 449.799988,689.227234 443.247925,689.868103 
	C438.054565,690.376099 432.643982,689.454956 427.600342,690.488464 
	C422.112854,691.612793 416.973267,692.643921 411.166840,692.248047 
	C399.149353,691.428528 387.036926,691.991882 374.963623,692.014954 
	C373.809570,692.017151 372.578430,691.995605 371.514648,692.364441 
	C364.811646,694.689270 358.201752,693.359741 351.455963,692.438354 
	C346.140594,691.712402 340.662018,692.280640 335.274567,691.960510 
	C325.533264,691.381653 315.799988,690.639526 306.074219,689.834290 
	C295.614685,688.968201 285.115143,688.329773 274.730560,686.889160 
	C265.184509,685.564941 255.381378,686.108765 246.199966,681.555908 
	C241.700485,679.324646 235.731323,680.282837 230.672287,678.900818 
	C223.327332,676.894226 216.221069,674.024780 208.978027,671.629089 
	C206.028091,670.653381 202.988770,669.946411 199.985870,669.132935 
	C197.299316,668.405151 195.428406,667.328674 194.626541,664.084778 
	C194.163925,662.213440 191.623611,660.345398 189.592300,659.500977 
	C187.042770,658.441040 185.624252,657.242554 186.008652,654.445190 
	C186.399780,651.598999 184.728027,648.376282 189.202454,646.571777 
	C192.513657,645.236389 194.901535,641.761841 197.975632,639.638184 
	C200.237701,638.075439 202.848831,636.867188 205.469727,636.001587 
	C215.070511,632.830872 224.727859,629.828430 234.393906,626.860352 
	C236.586273,626.187134 238.882309,625.788818 241.159164,625.463623 
	C258.788910,622.945801 276.401764,620.286499 294.069580,618.067139 
	C304.069763,616.810974 314.159912,616.248718 324.219116,615.503601 
	C326.158539,615.359863 328.145660,616.003052 330.105621,615.970764 
	C347.387604,615.686035 364.671631,614.958923 381.948669,615.106262 
	C397.610596,615.239868 413.275543,616.113831 428.918518,617.017822 
	C441.294128,617.733032 453.679871,618.641602 465.984039,620.110229 
	C476.560608,621.372620 487.060913,623.376648 497.533813,625.373352 
	C506.385803,627.061035 515.154541,629.189026 523.945496,631.186401 
	C524.709351,631.359985 525.364075,632.014038 526.418274,632.658813 
M499.857361,666.153198 
	C506.662506,666.576721 508.503052,659.721436 513.066040,656.811584 
	C514.141663,656.125610 514.227234,651.255493 513.040405,650.126404 
	C508.759583,646.053772 504.213928,641.587891 498.892578,639.434937 
	C490.502502,636.040405 481.491821,633.971802 472.580719,632.132080 
	C463.736694,630.306152 454.765625,628.835266 445.872772,627.331299 
	C427.074005,624.152100 408.200226,623.740906 389.361664,623.210510 
	C363.162598,622.472961 336.883881,622.291687 310.803986,626.009094 
	C296.758270,628.011108 282.659363,629.760010 268.720825,632.355408 
	C257.592865,634.427429 246.203979,636.544800 236.439758,642.574951 
	C232.798721,644.823547 228.915726,649.518616 228.573181,653.400757 
	C228.282318,656.697266 232.147690,661.841370 235.530792,663.704834 
	C245.892105,669.412048 256.975128,673.735046 268.857849,675.441528 
	C277.159332,676.633667 285.444885,677.960144 293.769348,678.962524 
	C301.556091,679.900085 309.134155,682.201233 317.235626,681.244507 
	C321.475739,680.743774 325.945251,682.681763 330.344543,682.932312 
	C340.361176,683.502686 350.398834,683.699951 360.427094,684.070557 
	C367.960358,684.348938 375.502686,685.057800 383.022461,684.862488 
	C393.440430,684.591858 403.841644,683.662231 414.248840,682.996643 
	C421.022705,682.563538 427.852753,682.507568 434.553955,681.554016 
	C445.320984,680.021973 455.960236,677.584106 466.731293,676.089905 
	C478.075226,674.516235 489.085815,672.160034 499.857361,666.153198 
z"/>
<path fill="#37FF9255" opacity="1.000000" stroke="none" 
	d="
M499.504791,666.300598 
	C489.085815,672.160034 478.075226,674.516235 466.731293,676.089905 
	C455.960236,677.584106 445.320984,680.021973 434.553955,681.554016 
	C427.852753,682.507568 421.022705,682.563538 414.248840,682.996643 
	C403.841644,683.662231 393.440430,684.591858 383.022461,684.862488 
	C375.502686,685.057800 367.960358,684.348938 360.427094,684.070557 
	C350.398834,683.699951 340.361176,683.502686 330.344543,682.932312 
	C325.945251,682.681763 321.475739,680.743774 317.235626,681.244507 
	C309.134155,682.201233 301.556091,679.900085 293.769348,678.962524 
	C285.444885,677.960144 277.159332,676.633667 268.857849,675.441528 
	C256.975128,673.735046 245.892105,669.412048 235.530792,663.704834 
	C232.147690,661.841370 228.282318,656.697266 228.573181,653.400757 
	C228.915726,649.518616 232.798721,644.823547 236.439758,642.574951 
	C246.203979,636.544800 257.592865,634.427429 268.720825,632.355408 
	C282.659363,629.760010 296.758270,628.011108 310.803986,626.009094 
	C336.883881,622.291687 363.162598,622.472961 389.361664,623.210510 
	C408.200226,623.740906 427.074005,624.152100 445.872772,627.331299 
	C454.765625,628.835266 463.736694,630.306152 472.580719,632.132080 
	C481.491821,633.971802 490.502502,636.040405 498.892578,639.434937 
	C504.213928,641.587891 508.759583,646.053772 513.040405,650.126404 
	C514.227234,651.255493 514.141663,656.125610 513.066040,656.811584 
	C508.503052,659.721436 506.662506,666.576721 499.504791,666.300598 
M309.255676,677.008118 
	C321.283051,678.005432 333.309326,679.016785 345.339050,679.984863 
	C347.160400,680.131409 349.001404,680.018677 350.827484,680.125183 
	C357.644531,680.522705 364.475372,681.485535 371.271240,681.274963 
	C385.004242,680.849243 398.734314,680.006592 412.434143,678.934265 
	C423.757202,678.047974 435.078369,676.885315 446.317383,675.268311 
	C453.608612,674.219299 460.848511,672.471069 467.932190,670.417908 
	C475.027710,668.361328 482.140564,666.045288 488.802460,662.903015 
	C495.252930,659.860413 496.325043,646.853821 490.485260,643.988586 
	C484.445160,641.024963 477.930786,638.788391 471.395935,637.134705 
	C463.576935,635.156128 455.550507,633.893372 447.552795,632.747192 
	C433.026794,630.665405 418.469849,627.444397 403.900299,627.301758 
	C373.058655,626.999634 342.123413,625.259460 311.365173,629.895325 
	C298.355865,631.856140 285.059784,632.059692 272.652100,637.192932 
	C271.458160,637.686890 270.022125,637.578369 268.802429,638.030151 
	C262.032684,640.537659 255.223495,642.961670 248.572281,645.757874 
	C244.303787,647.552368 244.228058,651.880371 245.277924,655.228088 
	C246.176025,658.091858 248.569504,661.141846 251.153015,662.670898 
	C255.201248,665.066895 259.938293,666.332214 264.440582,667.914185 
	C266.738861,668.721619 269.137817,669.292969 271.531250,669.770508 
	C283.790588,672.216675 296.062897,674.597473 309.255676,677.008118 
z"/>
<path fill="#37FF9250" opacity="1.000000" stroke="none" 
	d="
M308.793182,677.004639 
	C296.062897,674.597473 283.790588,672.216675 271.531250,669.770508 
	C269.137817,669.292969 266.738861,668.721619 264.440582,667.914185 
	C259.938293,666.332214 255.201248,665.066895 251.153015,662.670898 
	C248.569504,661.141846 246.176025,658.091858 245.277924,655.228088 
	C244.228058,651.880371 244.303787,647.552368 248.572281,645.757874 
	C255.223495,642.961670 262.032684,640.537659 268.802429,638.030151 
	C270.022125,637.578369 271.458160,637.686890 272.652100,637.192932 
	C285.059784,632.059692 298.355865,631.856140 311.365173,629.895325 
	C342.123413,625.259460 373.058655,626.999634 403.900299,627.301758 
	C418.469849,627.444397 433.026794,630.665405 447.552795,632.747192 
	C455.550507,633.893372 463.576935,635.156128 471.395935,637.134705 
	C477.930786,638.788391 484.445160,641.024963 490.485260,643.988586 
	C496.325043,646.853821 495.252930,659.860413 488.802460,662.903015 
	C482.140564,666.045288 475.027710,668.361328 467.932190,670.417908 
	C460.848511,672.471069 453.608612,674.219299 446.317383,675.268311 
	C435.078369,676.885315 423.757202,678.047974 412.434143,678.934265 
	C398.734314,680.006592 385.004242,680.849243 371.271240,681.274963 
	C364.475372,681.485535 357.644531,680.522705 350.827484,680.125183 
	C349.001404,680.018677 347.160400,680.131409 345.339050,679.984863 
	C333.309326,679.016785 321.283051,678.005432 308.793182,677.004639 
M337.114410,629.809387 
	C327.757385,630.870972 318.424255,632.451233 309.038239,632.883484 
	C290.948334,633.716553 274.212067,639.258667 257.814514,646.288635 
	C257.184143,646.558899 256.480652,647.416870 256.394775,648.076843 
	C255.803177,652.623718 260.415802,661.026123 264.707031,663.332275 
	C276.408356,669.620789 289.394287,671.629944 302.185516,673.833618 
	C312.747070,675.653137 323.538147,676.324585 334.259460,676.987976 
	C349.065643,677.904114 363.899506,678.748169 378.726044,678.833679 
	C389.299866,678.894775 399.902802,677.893677 410.453217,676.932800 
	C421.316772,675.943420 432.185181,674.757874 442.951569,673.034241 
	C450.912537,671.759766 458.676239,669.299194 466.597443,667.715454 
	C472.690369,666.497192 477.523224,663.227356 482.187134,659.463806 
	C485.951752,656.426086 486.120575,652.280334 482.590363,649.038086 
	C477.966980,644.791931 473.301971,640.943237 466.717926,639.694641 
	C452.978516,637.089233 439.453125,633.111633 425.630585,631.258057 
	C412.367462,629.479553 398.845673,629.496948 385.426636,629.059814 
	C375.938446,628.750793 366.431580,628.939575 356.934021,629.021301 
	C350.622284,629.075684 344.312317,629.333008 337.114410,629.809387 
z"/>
<path fill="#37FF9244" opacity="1.000000" stroke="none" 
	d="
M337.557983,629.654419 
	C344.312317,629.333008 350.622284,629.075684 356.934021,629.021301 
	C366.431580,628.939575 375.938446,628.750793 385.426636,629.059814 
	C398.845673,629.496948 412.367462,629.479553 425.630585,631.258057 
	C439.453125,633.111633 452.978516,637.089233 466.717926,639.694641 
	C473.301971,640.943237 477.966980,644.791931 482.590363,649.038086 
	C486.120575,652.280334 485.951752,656.426086 482.187134,659.463806 
	C477.523224,663.227356 472.690369,666.497192 466.597443,667.715454 
	C458.676239,669.299194 450.912537,671.759766 442.951569,673.034241 
	C432.185181,674.757874 421.316772,675.943420 410.453217,676.932800 
	C399.902802,677.893677 389.299866,678.894775 378.726044,678.833679 
	C363.899506,678.748169 349.065643,677.904114 334.259460,676.987976 
	C323.538147,676.324585 312.747070,675.653137 302.185516,673.833618 
	C289.394287,671.629944 276.408356,669.620789 264.707031,663.332275 
	C260.415802,661.026123 255.803177,652.623718 256.394775,648.076843 
	C256.480652,647.416870 257.184143,646.558899 257.814514,646.288635 
	C274.212067,639.258667 290.948334,633.716553 309.038239,632.883484 
	C318.424255,632.451233 327.757385,630.870972 337.557983,629.654419 
M424.076843,672.967407 
	C429.763763,671.976318 435.458679,671.028809 441.135864,669.984863 
	C452.388000,667.915710 463.483612,665.300903 473.524170,659.528625 
	C474.536469,658.946716 475.285950,657.515076 475.680573,656.320251 
	C477.267273,651.515808 475.459015,648.576294 470.419159,646.612366 
	C463.484161,643.909973 456.877228,639.965210 449.723022,638.298340 
	C424.595459,632.443909 398.835938,631.865417 373.211029,631.201111 
	C357.329468,630.789429 341.387207,632.178345 325.491852,633.098145 
	C318.918793,633.478516 312.332153,634.418823 305.869537,635.699219 
	C298.797546,637.100281 291.833130,639.085083 284.875671,641.010071 
	C279.279083,642.558533 273.503571,643.686951 268.860565,647.678833 
	C264.868195,651.111267 264.746674,655.629456 269.169220,658.437988 
	C276.157135,662.875671 283.069397,667.565125 291.703735,668.419495 
	C296.302551,668.874512 301.014038,669.150574 305.422516,670.398315 
	C322.369812,675.194763 339.815460,675.223755 357.135742,675.877075 
	C379.194336,676.709290 401.258301,676.029480 424.076843,672.967407 
z"/>
<path fill="#37FF9233" opacity="1.000000" stroke="none" 
	d="
M423.630005,672.981018 
	C401.258301,676.029480 379.194336,676.709290 357.135742,675.877075 
	C339.815460,675.223755 322.369812,675.194763 305.422516,670.398315 
	C301.014038,669.150574 296.302551,668.874512 291.703735,668.419495 
	C283.069397,667.565125 276.157135,662.875671 269.169220,658.437988 
	C264.746674,655.629456 264.868195,651.111267 268.860565,647.678833 
	C273.503571,643.686951 279.279083,642.558533 284.875671,641.010071 
	C291.833130,639.085083 298.797546,637.100281 305.869537,635.699219 
	C312.332153,634.418823 318.918793,633.478516 325.491852,633.098145 
	C341.387207,632.178345 357.329468,630.789429 373.211029,631.201111 
	C398.835938,631.865417 424.595459,632.443909 449.723022,638.298340 
	C456.877228,639.965210 463.484161,643.909973 470.419159,646.612366 
	C475.459015,648.576294 477.267273,651.515808 475.680573,656.320251 
	C475.285950,657.515076 474.536469,658.946716 473.524170,659.528625 
	C463.483612,665.300903 452.388000,667.915710 441.135864,669.984863 
	C435.458679,671.028809 429.763763,671.976318 423.630005,672.981018 
M376.498535,634.000000 
	C364.047394,634.335144 351.567841,634.266846 339.154541,635.139893 
	C330.124725,635.775024 321.163483,637.540161 312.209076,639.026611 
	C307.834961,639.752747 303.462189,640.726929 299.238647,642.062744 
	C293.125885,643.996033 287.005188,646.040100 281.173218,648.669678 
	C278.124573,650.044434 277.917999,655.121582 280.606842,656.663330 
	C285.334045,659.373901 290.121552,662.341614 295.278961,663.855896 
	C303.307678,666.213074 311.598267,667.996033 319.901459,669.029602 
	C333.835144,670.764099 347.842255,672.215393 361.861511,672.884277 
	C383.277405,673.906067 404.684937,672.521729 425.766205,668.763062 
	C436.657593,666.821106 447.279175,663.050781 457.788330,659.427002 
	C462.334991,657.859131 462.533722,650.760010 458.390900,648.070862 
	C455.237152,646.023621 451.784698,644.137756 448.198792,643.103577 
	C425.116333,636.446350 401.426697,634.231201 376.498535,634.000000 
z"/>
<path fill="#37FF9230" opacity="1.000000" stroke="none" 
	d="
M376.998047,634.000000 
	C401.426697,634.231201 425.116333,636.446350 448.198792,643.103577 
	C451.784698,644.137756 455.237152,646.023621 458.390900,648.070862 
	C462.533722,650.760010 462.334991,657.859131 457.788330,659.427002 
	C447.279175,663.050781 436.657593,666.821106 425.766205,668.763062 
	C404.684937,672.521729 383.277405,673.906067 361.861511,672.884277 
	C347.842255,672.215393 333.835144,670.764099 319.901459,669.029602 
	C311.598267,667.996033 303.307678,666.213074 295.278961,663.855896 
	C290.121552,662.341614 285.334045,659.373901 280.606842,656.663330 
	C277.917999,655.121582 278.124573,650.044434 281.173218,648.669678 
	C287.005188,646.040100 293.125885,643.996033 299.238647,642.062744 
	C303.462189,640.726929 307.834961,639.752747 312.209076,639.026611 
	C321.163483,637.540161 330.124725,635.775024 339.154541,635.139893 
	C351.567841,634.266846 364.047394,634.335144 376.998047,634.000000 
M336.288513,667.009033 
	C343.531006,667.672668 350.795502,669.074219 358.011841,668.859192 
	C378.214508,668.257141 398.442749,667.498230 418.563995,665.710754 
	C425.860962,665.062561 433.024536,661.663574 439.940033,658.778992 
	C441.857330,657.979248 443.767517,654.464294 443.652679,652.302856 
	C443.551910,650.406433 440.932556,647.815796 438.856323,647.023193 
	C434.418427,645.329163 429.657043,644.339355 424.947723,643.527832 
	C413.434998,641.544006 401.932434,639.009216 390.321838,638.213989 
	C376.893707,637.294312 363.344788,637.695435 349.866669,638.114380 
	C341.803284,638.364990 333.691162,639.290039 325.753571,640.744690 
	C317.009369,642.347229 308.425079,644.847290 299.814209,647.119507 
	C298.783722,647.391479 297.119537,649.094971 297.276764,649.441223 
	C298.842377,652.889221 298.257233,657.422424 302.778168,659.427185 
	C313.180359,664.039856 323.971588,666.751038 336.288513,667.009033 
z"/>
<path fill="#37FF9222" opacity="1.000000" stroke="none" 
	d="
M335.825195,667.005188 
	C323.971588,666.751038 313.180359,664.039856 302.778168,659.427185 
	C298.257233,657.422424 298.842377,652.889221 297.276764,649.441223 
	C297.119537,649.094971 298.783722,647.391479 299.814209,647.119507 
	C308.425079,644.847290 317.009369,642.347229 325.753571,640.744690 
	C333.691162,639.290039 341.803284,638.364990 349.866669,638.114380 
	C363.344788,637.695435 376.893707,637.294312 390.321838,638.213989 
	C401.932434,639.009216 413.434998,641.544006 424.947723,643.527832 
	C429.657043,644.339355 434.418427,645.329163 438.856323,647.023193 
	C440.932556,647.815796 443.551910,650.406433 443.652679,652.302856 
	C443.767517,654.464294 441.857330,657.979248 439.940033,658.778992 
	C433.024536,661.663574 425.860962,665.062561 418.563995,665.710754 
	C398.442749,667.498230 378.214508,668.257141 358.011841,668.859192 
	C350.795502,669.074219 343.531006,667.672668 335.825195,667.005188 
M364.510254,643.000000 
	C353.126862,644.456299 341.721466,645.765320 330.374023,647.462097 
	C327.125366,647.947876 322.382690,648.217163 322.343353,652.596558 
	C322.301758,657.234070 326.767212,658.717224 330.656555,659.956848 
	C330.967834,660.055969 331.314484,660.043701 331.644531,660.084290 
	C342.275177,661.389404 352.885254,663.510010 363.542084,663.779358 
	C375.072693,664.070740 386.721649,663.207031 398.171143,661.713562 
	C404.019409,660.950684 410.797943,662.823425 415.706543,657.775208 
	C417.300049,656.136414 418.499146,654.114014 419.878601,652.267029 
	C417.823120,650.830994 415.954437,648.646545 413.682098,648.079407 
	C397.882690,644.136108 381.862061,641.864319 364.510254,643.000000 
z"/>
<path fill="#37FF9210" opacity="1.000000" stroke="none" 
	d="
M365.008484,643.000000 
	C381.862061,641.864319 397.882690,644.136108 413.682098,648.079407 
	C415.954437,648.646545 417.823120,650.830994 419.878601,652.267029 
	C418.499146,654.114014 417.300049,656.136414 415.706543,657.775208 
	C410.797943,662.823425 404.019409,660.950684 398.171143,661.713562 
	C386.721649,663.207031 375.072693,664.070740 363.542084,663.779358 
	C352.885254,663.510010 342.275177,661.389404 331.644531,660.084290 
	C331.314484,660.043701 330.967834,660.055969 330.656555,659.956848 
	C326.767212,658.717224 322.301758,657.234070 322.343353,652.596558 
	C322.382690,648.217163 327.125366,647.947876 330.374023,647.462097 
	C341.721466,645.765320 353.126862,644.456299 365.008484,643.000000 
z"/>
</svg>